PathFileType	4	(X/Y/Z)	C:\Users\Basilio\Documents\Thesis Gigler\squatting_fais\c3dfiles\039\SLS_pre_front3\markers_experimental.trc
DataRate	CameraRate	NumFrames	NumMarkers	Units	OrigDataRate	OrigDataStartFrame	OrigNumFrames
200.000000	200.000000	4	63	mm	200.000000	0	2166
Frame#	Time	FHD			LBHD			RBHD			C7			T10			CLAV			LSHO			LUUPA			LMUPA			LDUPA			LLEP			LMEP			LRAD			LUL			LRFIN			RSHO			RUPA1			RMUPA			RDUPA			RLEP			RMEP			RRAD			RUL			RUFIN			LASI			RASI			USACR			LSACR			RSACR			LTHI1			LTHI2			LTHI3			LTHI4			LLFC			LMFC			LTIB1			LTIB2			LTIB3			LTIB4			LLMAL			LMMAL			LHEE			LMT1			LMT2			LMT5			RTHI			RTHI2			RTHI3			RTHI4			RLFC			RMFC			RTIB1			RTIB2			RTIB3			RTIB4			RLMAL			RMMAL			RHEE			RMT1			RMT2			RMT5			*61			*62			
		X1	Y1	Z1	X2	Y2	Z2	X3	Y3	Z3	X4	Y4	Z4	X5	Y5	Z5	X6	Y6	Z6	X7	Y7	Z7	X8	Y8	Z8	X9	Y9	Z9	X10	Y10	Z10	X11	Y11	Z11	X12	Y12	Z12	X13	Y13	Z13	X14	Y14	Z14	X15	Y15	Z15	X16	Y16	Z16	X17	Y17	Z17	X18	Y18	Z18	X19	Y19	Z19	X20	Y20	Z20	X21	Y21	Z21	X22	Y22	Z22	X23	Y23	Z23	X24	Y24	Z24	X25	Y25	Z25	X26	Y26	Z26	X27	Y27	Z27	X28	Y28	Z28	X29	Y29	Z29	X30	Y30	Z30	X31	Y31	Z31	X32	Y32	Z32	X33	Y33	Z33	X34	Y34	Z34	X35	Y35	Z35	X36	Y36	Z36	X37	Y37	Z37	X38	Y38	Z38	X39	Y39	Z39	X40	Y40	Z40	X41	Y41	Z41	X42	Y42	Z42	X43	Y43	Z43	X44	Y44	Z44	X45	Y45	Z45	X46	Y46	Z46	X47	Y47	Z47	X48	Y48	Z48	X49	Y49	Z49	X50	Y50	Z50	X51	Y51	Z51	X52	Y52	Z52	X53	Y53	Z53	X54	Y54	Z54	X55	Y55	Z55	X56	Y56	Z56	X57	Y57	Z57	X58	Y58	Z58	X59	Y59	Z59	X60	Y60	Z60	X61	Y61	Z61	X62	Y62	Z62	X63	Y63	Z63	

1	0	-286.5368652343751	1805.9814453125	-812.331237792969	-461.3917541503907	1752.731689453125	-896.8953857421877	-405.8120727539064	1762.516235351563	-766.3872070312501	-470.140350341797	1586.417846679688	-868.1436157226565	-434.7003784179689	1275.240844726563	-876.4968872070315	-316.8001403808594	1539.419067382813	-864.9041137695315	-380.2388916015626	1569.151000976563	-1058.733154296875	-387.1819152832032	1337.046142578125	-1146.304077148438	-338.8245849609376	1329.365600585938	-1139.108642578125	-359.7940368652344	1273.044555664063	-1150.01953125	-335.9041748046876	1213.679443359375	-1152.627685546875	-366.2857360839844	1192.741821289063	-1080.352783203125	-145.6486511230469	1000.507873535156	-1101.293212890625	-193.5776519775391	975.839050292969	-1154.839721679688	-89.49617004394533	934.0780029296877	-1118.057495117188	-378.4033508300782	1543.904663085938	-670.7966918945314	-419.138153076172	1313.31396484375	-602.2836914062501	-371.9136962890626	1298.947509765625	-600.1861572265626	-402.3520812988282	1246.219116210938	-599.5457763671876	-375.2638549804688	1190.355712890625	-593.3775024414064	-399.540985107422	1170.621826171875	-669.4165039062501	-162.3889312744141	980.9692993164065	-628.7017822265626	-219.3082427978516	949.4719848632815	-587.3978881835939	-110.0948715209961	910.435729980469	-597.4602050781251	-241.4121093750001	1115.1787109375	-988.4346313476565	-245.2426757812501	1101.615478515625	-761.1985473632814	-430.1015625000001	1150.518798828125	-873.1690063476565	-430.182098388672	1119.509033203125	-902.8372802734377	-435.5258178710939	1117.882080078125	-845.2666625976565	-313.1241760253907	832.6123657226565	-1063.39697265625	-282.5311584472657	753.8806762695314	-1061.07275390625	-236.5686187744141	757.0059204101564	-1051.548461914063	-312.4476928710938	701.8193969726564	-1050.956665039063	-320.1843566894532	577.9391479492189	-1048.763061523438	-290.2145690917969	550.8687133789064	-936.0367431640627	-277.3748168945313	425.2752990722657	-1029.047241210938	-339.9394226074219	394.1155090332032	-1073.813842773438	-306.3866271972657	382.1552124023438	-1054.37158203125	-312.5864257812501	301.8221740722657	-1016.894775390625	-390.3115539550782	143.4130401611328	-1046.107299804688	-368.9552307128907	139.0191345214844	-963.0759887695315	-460.1512451171876	109.4958877563477	-1004.743530273438	-232.8366394042969	57.37910079956056	-1000.786743164063	-242.2228393554688	57.87700271606447	-1042.584716796875	-294.1955261230469	44.47420501708985	-1090.394653320313	-295.5601806640626	828.9427490234377	-691.0385742187501	-255.1280517578126	776.9602050781252	-684.8519287109376	-223.151107788086	781.8442382812502	-689.3443603515626	-278.6404418945313	694.0888671875001	-692.5807495117189	-309.7773742675782	554.6233520507814	-713.7410278320314	-262.7981262207032	538.0570678710939	-822.9848632812502	-286.9226074218751	340.0761108398438	-713.2764892578126	-377.4135131835938	282.6922302246094	-713.4879150390626	-333.4123840332032	270.2359619140626	-704.8292236328126	-316.5591430664063	218.3200378417969	-732.7829589843751	-388.0065307617189	127.2755126953125	-711.9194946289064	-353.1197814941407	141.7293853759766	-793.8521118164065	-453.9151611328126	106.2286529541016	-766.9075317382814	-230.4809570312501	58.57598114013673	-773.7551879882815	-235.077621459961	59.29547500610353	-728.4179687500001	-291.0193786621094	40.02093124389649	-678.0122680664064	nan	nan	nan	nan	nan	nan	
2	0.005	-286.4869995117188	1805.997192382813	-812.3291015625002	-461.3040161132814	1752.758666992188	-896.9453735351565	-405.7451477050782	1762.5419921875	-766.4415893554689	-470.040252685547	1586.479736328125	-868.1958007812502	-434.7550659179689	1275.274169921875	-876.547058105469	-316.3018493652344	1538.955322265625	-864.8057250976565	-380.1990051269532	1569.14208984375	-1058.784423828125	-387.4727172851564	1337.027221679688	-1146.280151367188	-339.0905151367188	1329.196166992188	-1139.012817382813	-360.1581726074219	1272.970336914063	-1149.951416015625	-336.3782043457032	1213.551879882813	-1152.533325195313	-366.9009399414063	1192.736694335938	-1080.245727539063	-146.9150848388672	999.6303710937502	-1100.999633789063	-194.7098999023438	975.2645263671877	-1154.795654296875	-90.74954986572267	933.302673339844	-1118.163452148438	-378.3028564453126	1543.886962890625	-670.8014526367189	-419.2164916992189	1313.352172851563	-602.3463134765626	-371.9984436035157	1298.907958984375	-600.1934814453126	-402.5173950195314	1246.221923828125	-599.6113281250001	-375.4299316406251	1190.375732421875	-593.4387207031251	-399.3037719726564	1171.215576171875	-669.2999267578126	-162.8466186523438	980.5697021484377	-628.7816162109376	-219.810775756836	949.154724121094	-587.5422363281251	-110.6422119140625	910.0213623046877	-597.7214965820314	-241.4861145019532	1115.153442382813	-988.5012207031252	-245.339340209961	1101.62109375	-761.2321166992189	-429.7828674316407	1149.816772460938	-873.2590942382815	-430.2003173828126	1119.494140625	-902.8582153320315	-435.5901489257814	1117.910522460938	-845.2881469726565	-313.1979675292969	832.6444091796877	-1063.410766601563	-282.5580749511719	753.8411865234376	-1061.08251953125	-236.5691528320313	757.0453491210939	-1051.626831054688	-312.4960632324219	701.8096923828126	-1050.99658203125	-320.1569824218751	577.9180297851564	-1048.783325195313	-290.2680358886719	550.8859863281251	-936.043884277344	-277.4282531738282	425.4177246093751	-1029.066040039063	-347.3537902832032	390.5717773437501	-1069.03271484375	-307.0317382812501	381.8322448730469	-1054.004760742188	-312.6341857910157	301.8108825683594	-1016.90966796875	-390.3236083984376	143.3762817382813	-1046.103759765625	-368.8987731933594	138.9981384277344	-963.1282958984377	-460.1687622070314	109.4692535400391	-1004.712280273438	-232.8131561279297	57.41110992431642	-1000.721313476563	-242.2476043701172	57.88917160034181	-1042.6142578125	-294.1985473632813	44.43949890136719	-1090.396118164063	-295.6135253906251	828.954772949219	-691.0520019531251	-254.7287750244141	777.476257324219	-684.5629272460939	-223.1977844238282	781.857360839844	-689.3612060546876	-278.6154174804688	694.1048583984376	-692.6368408203126	-309.7797546386719	554.6674194335939	-713.7530517578126	-262.7806701660157	538.0730590820314	-823.002868652344	-286.9696350097657	340.0733642578126	-713.2244262695314	-377.4209594726563	282.7192382812501	-713.4998779296876	-333.4102172851563	270.2355957031251	-704.8302612304689	-316.5834960937501	218.3323364257813	-732.8011474609376	-388.0065307617189	127.2755126953125	-711.9194946289064	-353.1519470214844	141.6989898681641	-793.8679809570315	-453.8936157226564	106.2235260009766	-766.9045410156251	-230.5121307373047	58.54667282104494	-773.7337036132815	-234.9773101806641	59.17256927490236	-728.3975830078126	-290.8186340332032	39.54799270629884	-678.3482666015626	nan	nan	nan	nan	nan	nan	
3	0.01	-286.3934020996094	1805.95751953125	-812.344421386719	-461.2407836914064	1752.7890625	-896.964050292969	-405.6768798828126	1762.556274414063	-766.4713134765626	-470.0415039062501	1586.518188476563	-868.2006835937502	-434.8370056152345	1275.291381835938	-876.5462646484377	-316.6170043945313	1539.478759765625	-864.9754028320315	-380.1400146484376	1569.135498046875	-1058.823852539063	-387.7243041992189	1336.973876953125	-1146.238037109375	-339.4172363281251	1329.0556640625	-1139.029296875	-360.5217590332032	1272.900512695313	-1149.893798828125	-336.9116210937501	1213.41015625	-1152.376098632813	-367.4558105468751	1192.662719726563	-1080.150390625	-147.751708984375	998.395446777344	-1101.10986328125	-195.9921569824219	974.6593017578127	-1154.807495117188	-92.19244384765626	932.3331298828127	-1118.0849609375	-378.2387084960938	1543.919067382813	-670.8209228515626	-419.3282775878907	1313.356811523438	-602.3629760742189	-372.0972900390626	1298.893310546875	-600.3348388671876	-402.6618041992189	1246.227661132813	-599.7152099609376	-375.6237792968751	1190.355712890625	-593.5259399414064	-399.5645751953126	1171.221069335938	-669.4085693359376	-163.4414520263672	980.2109985351565	-628.7589721679689	-220.3481445312501	948.3779907226565	-587.5991821289064	-111.2349472045899	909.9814453125002	-597.6631469726564	-241.5327453613282	1115.147705078125	-988.5240478515627	-245.3415832519532	1101.621704101563	-761.2585449218751	-430.224578857422	1151.001098632813	-873.330993652344	-430.2533569335939	1119.499145507813	-902.9014892578127	-435.5669555664064	1117.888061523438	-845.3328857421877	-313.2279052734376	832.6131591796877	-1063.435424804688	-282.6570434570313	753.8419189453126	-1061.11279296875	-236.5904998779297	757.0298461914064	-1051.640258789063	-312.4998779296876	701.8059082031251	-1051.024658203125	-320.1889343261719	577.9376831054689	-1048.802856445313	-290.2691345214844	550.8805541992189	-936.0671997070315	-277.4887695312501	425.3906555175782	-1029.092041015625	-347.7315063476563	389.8935546875001	-1069.160888671875	-307.0318908691407	381.7888488769532	-1054.028442382813	-312.6437377929688	301.8062744140626	-1016.972595214844	-390.3096008300782	143.4103546142578	-1046.107788085938	-368.9608764648438	139.0063781738282	-963.103942871094	-460.6533813476564	109.689926147461	-1004.912353515625	-232.8211669921876	57.40820312500001	-1000.753295898438	-242.2064056396485	57.92073822021486	-1042.581909179688	-294.2200927734376	44.4611930847168	-1090.412109375	-295.5992126464844	828.9680175781252	-691.0800781250001	-255.1198425292969	776.9099731445315	-684.8912963867189	-223.1988372802735	781.8223876953127	-689.4038696289064	-278.6520385742188	694.1107788085939	-692.6214599609376	-309.7913208007813	554.6771240234376	-713.7958374023439	-262.7514343261719	538.0783691406251	-823.0224609375002	-286.9102478027344	340.0727539062501	-713.2946777343751	-377.4292907714844	282.7109680175782	-713.4730834960939	-333.3825073242188	270.2305603027344	-704.8569946289064	-316.5640258789063	218.3374176025391	-732.7762451171876	-387.985565185547	127.2771072387696	-711.9125976562501	-353.1366882324219	141.6836242675782	-793.846130371094	-453.904266357422	106.2105102539063	-766.9260253906251	-230.5039825439454	58.56990432739259	-773.7744750976565	-235.0826721191407	59.31816864013673	-728.4179687500001	-291.0070800781251	40.03423309326173	-678.0192260742189	nan	nan	nan	nan	nan	nan	
4	0.015	-286.2941894531251	1805.954345703125	-812.3665161132815	-461.1606750488282	1752.753173828125	-896.9981689453127	-405.6546020507814	1762.5673828125	-766.5438842773439	-469.9414672851564	1586.560546875	-868.246276855469	-434.8262023925782	1275.260864257813	-876.5399169921877	-316.5742797851563	1539.47998046875	-864.9912719726565	-380.0537719726563	1569.1376953125	-1058.861694335938	-388.0361938476564	1336.932861328125	-1146.211303710938	-339.6005859375001	1328.8916015625	-1138.9677734375	-360.7979736328126	1272.823120117188	-1149.842895507813	-337.4289550781251	1213.255004882813	-1152.306640625	-367.9369506835938	1192.607788085938	-1080.112182617188	-148.8751068115235	997.6718750000002	-1101.232299804688	-196.6048431396485	973.6741333007815	-1154.777465820313	-93.65109252929689	931.3508300781252	-1117.963012695313	-378.1264038085938	1543.961059570313	-670.8796997070314	-419.3620910644532	1313.37548828125	-602.3736572265626	-372.1514587402344	1298.8603515625	-600.3887939453126	-402.8135681152345	1246.24072265625	-599.7715454101564	-375.8161621093751	1190.352172851563	-593.5887451171876	-400.2094116210939	1170.6962890625	-669.6427612304689	-164.11083984375	979.8547363281252	-628.8254394531251	-220.8148345947266	948.6250000000002	-587.6607055664064	-111.8968734741211	909.6239013671877	-597.7453002929689	-241.559799194336	1115.145751953125	-988.545593261719	-245.3660736083985	1101.597778320313	-761.3416137695314	-429.8533935546876	1149.827026367188	-873.302917480469	-430.2773437500001	1119.51025390625	-902.9336547851565	-435.6305236816407	1117.916870117188	-845.353942871094	-313.2676391601563	832.6276855468752	-1063.446899414063	-282.6733398437501	753.8432006835939	-1061.15283203125	-236.6477813720704	757.0104370117189	-1051.69287109375	-312.6274108886719	701.8071899414064	-1051.034545898438	-320.2359924316407	577.9240722656251	-1048.796020507813	-290.2898864746094	550.8778686523439	-936.101745605469	-277.5021667480469	425.387176513672	-1029.115356445313	-347.3830871582032	390.536346435547	-1069.054077148438	-307.0325927734376	381.8140869140626	-1054.025024414063	-312.6437377929688	301.8062133789063	-1016.972595214844	-390.3182983398439	143.4002075195313	-1046.106811523438	-368.9612731933594	139.0059356689453	-963.1043701171877	-460.6012573242189	109.6394958496094	-1004.915710449219	-232.8000030517579	57.41549301147462	-1000.714172363281	-242.1990966796876	57.90610885620119	-1042.561767578125	-294.1955261230469	44.47420883178712	-1090.394653320313	-295.6109008789063	828.9727783203127	-691.0947265625001	-255.1074523925782	776.8785400390627	-684.8875122070314	-223.1989135742188	781.8460083007815	-689.4202880859376	-278.6483154296876	694.0984497070314	-692.6921386718751	-309.7962951660157	554.6651611328126	-713.7926025390626	-262.7523803710938	538.0791625976564	-823.0728149414065	-286.9411010742188	340.0702209472657	-713.2765502929689	-377.4156799316407	282.7039489746094	-713.5197753906251	-333.3949279785157	270.2608947753907	-704.8875122070314	-316.5591430664063	218.3200225830079	-732.7829589843751	-387.9785156250001	127.2893905639649	-711.9296264648439	-353.1666564941407	141.6858520507813	-793.8665771484377	-453.9025878906251	106.2378387451172	-766.9557495117189	-230.4776916503907	58.5431365966797	-773.7625732421877	-235.009262084961	59.14636611938478	-728.4194335937501	-290.8178405761719	39.54288864135743	-678.3669433593751	nan	nan	nan	nan	nan	nan	
